<?xml version="1.0" encoding="UTF-8"?>
<svg id="_レイヤー_2" data-name="レイヤー 2" xmlns="http://www.w3.org/2000/svg" viewBox="0 0 164.98 45.31">
  <defs>
    <style>
      .cls-1 {
        fill: #fff;
      }
    </style>
  </defs>
  <g id="_レイヤー_1-2" data-name="レイヤー 1">
    <g>
      <path class="cls-1" d="M0,.91h11.28c3.56,0,6.26.28,8.1.83s3.32,1.68,4.44,3.37c1.13,1.69,1.69,4.42,1.69,8.17,0,2.54-.4,4.31-1.2,5.31s-2.37,1.77-4.71,2.31c2.61.59,4.39,1.57,5.32,2.94.93,1.37,1.4,3.47,1.4,6.3v4.03c0,2.94-.34,5.11-1.01,6.53-.67,1.42-1.74,2.38-3.21,2.9-1.47.52-4.48.78-9.02.78H0V.91ZM11.31,8.35v9.67c.48-.02.86-.03,1.13-.03,1.11,0,1.82-.27,2.12-.82s.46-2.11.46-4.69c0-1.36-.12-2.31-.38-2.86-.25-.55-.58-.89-.98-1.03-.4-.14-1.19-.22-2.35-.24ZM11.31,24.79v12.17c1.59-.05,2.61-.3,3.05-.75.44-.45.66-1.55.66-3.3v-4.05c0-1.86-.2-2.99-.59-3.38-.39-.39-1.43-.62-3.12-.67Z"/>
      <path class="cls-1" d="M60.89.91v29.06c0,3.29-.11,5.61-.32,6.94-.21,1.33-.85,2.7-1.91,4.11s-2.45,2.47-4.18,3.2c-1.73.73-3.76,1.09-6.11,1.09-2.6,0-4.89-.43-6.88-1.29-1.99-.86-3.47-1.98-4.46-3.36-.99-1.38-1.57-2.83-1.75-4.36-.18-1.53-.27-4.75-.27-9.66V.91h11.31v32.6c0,1.9.1,3.11.31,3.64.21.53.62.79,1.25.79.72,0,1.18-.29,1.38-.87.21-.58.31-1.96.31-4.12V.91h11.31Z"/>
      <path class="cls-1" d="M70.02.91h8c5.33,0,8.95.21,10.84.62s3.43,1.46,4.62,3.16c1.19,1.69,1.79,4.39,1.79,8.1,0,3.38-.42,5.66-1.26,6.82-.84,1.16-2.5,1.86-4.97,2.09,2.24.56,3.74,1.3,4.51,2.23s1.25,1.79,1.44,2.56c.19.78.28,2.92.28,6.43v11.47h-10.5v-14.45c0-2.33-.18-3.77-.55-4.32-.37-.56-1.33-.83-2.89-.83v19.6h-11.31V.91ZM81.32,8.35v9.67c1.27,0,2.16-.17,2.67-.52.51-.35.77-1.48.77-3.4v-2.39c0-1.38-.25-2.28-.74-2.71s-1.39-.64-2.7-.64Z"/>
      <path class="cls-1" d="M128.66,14.07h-10.5v-3.22c0-1.5-.13-2.46-.4-2.87s-.72-.62-1.34-.62c-.68,0-1.2.28-1.54.83-.35.56-.52,1.4-.52,2.53,0,1.45.2,2.54.59,3.28.38.73,1.44,1.62,3.2,2.66,5.03,2.99,8.2,5.44,9.51,7.35,1.31,1.92,1.96,5,1.96,9.26,0,3.1-.36,5.38-1.09,6.85-.73,1.47-2.13,2.7-4.2,3.69-2.08.99-4.49,1.49-7.25,1.49-3.03,0-5.61-.57-7.75-1.72s-3.54-2.6-4.2-4.38c-.66-1.77-.99-4.29-.99-7.55v-2.85h10.5v5.29c0,1.63.15,2.68.44,3.14.3.47.82.7,1.57.7s1.31-.29,1.68-.89c.37-.59.55-1.47.55-2.63,0-2.56-.35-4.23-1.05-5.02-.72-.79-2.48-2.1-5.29-3.95-2.81-1.86-4.67-3.21-5.59-4.05-.91-.84-1.67-2-2.27-3.49-.6-1.49-.9-3.38-.9-5.69,0-3.33.42-5.76,1.28-7.3.85-1.54,2.22-2.74,4.12-3.61,1.9-.87,4.19-1.3,6.88-1.3,2.94,0,5.44.47,7.51,1.42,2.07.95,3.44,2.14,4.11,3.58.67,1.44,1.01,3.89,1.01,7.34v1.72Z"/>
      <path class="cls-1" d="M158.51.91l6.47,43.48h-11.55l-.61-7.81h-4.04l-.68,7.81h-11.69L142.17.91h16.34ZM152.52,28.87c-.57-4.92-1.15-11.01-1.72-18.26-1.15,8.33-1.88,14.41-2.17,18.26h3.89Z"/>
    </g>
  </g>
</svg>